<?xml version="1.0" encoding="utf-8"?>
<!-- Generator: Adobe Illustrator 21.1.0, SVG Export Plug-In . SVG Version: 6.00 Build 0)  -->
<svg version="1.1" id="Layer_1" xmlns="http://www.w3.org/2000/svg" xmlns:xlink="http://www.w3.org/1999/xlink" x="0px" y="0px"
	 viewBox="0 0 70 70" style="enable-background:new 0 0 70 70;" xml:space="preserve">
<style type="text/css">
	.st0{fill:#001F49;}
</style>
<g id="cor_ozo">
	<g transform="translate(9056.46 3470.28)">
		<path id="path0_fill" class="st0" d="M-9030.7-3440.6c-0.4,0.6-0.8,1-1.4,1.3c-0.6,0.3-1.3,0.4-2,0.4c-0.6,0-1.1-0.1-1.6-0.2
			c-0.5-0.2-0.9-0.4-1.2-0.7c-0.3-0.3-0.6-0.7-0.8-1.1c-0.2-0.4-0.3-0.9-0.3-1.3c0-0.5,0.1-0.9,0.3-1.3c0.2-0.4,0.5-0.8,0.8-1.1
			c0.3-0.3,0.8-0.5,1.2-0.7c0.5-0.2,1-0.3,1.6-0.3c0.7,0,1.3,0.1,1.9,0.4c0.6,0.3,1,0.6,1.4,1.1l-0.8,0.5c-0.3-0.4-0.6-0.6-1-0.8
			c-0.4-0.2-0.9-0.3-1.4-0.3c-0.4,0-0.8,0.1-1.1,0.2c-0.3,0.1-0.6,0.3-0.9,0.5s-0.5,0.5-0.6,0.8c-0.1,0.3-0.2,0.6-0.2,1
			c0,0.4,0.1,0.7,0.2,1c0.1,0.3,0.3,0.6,0.6,0.8c0.3,0.2,0.6,0.4,0.9,0.5c0.3,0.1,0.7,0.2,1.1,0.2c1.1,0,2-0.5,2.6-1.4
			L-9030.7-3440.6z"/>
	</g>
	<g transform="translate(9056.46 3470.28)">
		<path id="path1_fill" class="st0" d="M-9021.4-3439.8c0.4,0,0.8-0.1,1.2-0.2c0.4-0.1,0.7-0.3,0.9-0.5c0.3-0.2,0.4-0.5,0.6-0.8
			c0.1-0.3,0.2-0.6,0.2-1s-0.1-0.7-0.2-0.9c-0.1-0.3-0.3-0.6-0.6-0.8c-0.2-0.2-0.5-0.4-0.9-0.5c-0.4-0.1-0.8-0.2-1.2-0.2
			c-0.4,0-0.8,0.1-1.2,0.2c-0.3,0.1-0.6,0.3-0.9,0.5c-0.2,0.2-0.4,0.5-0.6,0.8c-0.1,0.3-0.2,0.6-0.2,1c0,0.4,0.1,0.7,0.2,1
			c0.1,0.3,0.3,0.6,0.6,0.8c0.3,0.2,0.6,0.4,0.9,0.5C-9022.2-3439.9-9021.8-3439.8-9021.4-3439.8z M-9021.4-3438.9
			c-0.6,0-1.1-0.1-1.6-0.3c-0.5-0.2-0.9-0.4-1.2-0.7c-0.3-0.3-0.6-0.7-0.8-1.1c-0.2-0.4-0.3-0.9-0.3-1.3c0-0.5,0.1-0.9,0.3-1.3
			c0.2-0.4,0.5-0.8,0.8-1.1c0.3-0.3,0.8-0.5,1.2-0.7c0.5-0.2,1-0.3,1.6-0.3c0.6,0,1.1,0.1,1.6,0.3c0.5,0.2,0.9,0.4,1.2,0.7
			c0.3,0.3,0.6,0.6,0.8,1.1c0.2,0.4,0.3,0.9,0.3,1.3s-0.1,0.9-0.3,1.3c-0.2,0.4-0.4,0.8-0.8,1.1c-0.3,0.3-0.7,0.5-1.2,0.7
			C-9020.2-3439-9020.8-3438.9-9021.4-3438.9z"/>
	</g>
	<g transform="translate(9056.46 3470.28)">
		<path id="path2_fill" class="st0" d="M-9007.3-3442.8c0.7,0,1.1-0.3,1.1-0.9c0-0.6-0.4-0.9-1.1-0.9h-3.4v1.7h3.4V-3442.8z
			 M-9010.7-3439.1h-1v-6.4h4.4c0.7,0,1.2,0.2,1.5,0.5c0.4,0.3,0.5,0.7,0.5,1.3c0,0.4-0.1,0.8-0.4,1.2c-0.3,0.3-0.7,0.5-1.1,0.6
			l1.8,2.8h-1.1l-1.8-2.8h-2.8V-3439.1z"/>
	</g>
	<g transform="translate(9056.46 3470.28)">
		<path id="path3_fill" class="st0" d="M-9033.5-3425.8c0.4,0,0.8-0.1,1.2-0.2c0.4-0.1,0.7-0.3,0.9-0.5c0.3-0.2,0.4-0.5,0.6-0.8
			c0.1-0.3,0.2-0.6,0.2-1s-0.1-0.7-0.2-0.9c-0.1-0.3-0.3-0.6-0.6-0.8c-0.2-0.2-0.5-0.4-0.9-0.5c-0.4-0.1-0.8-0.2-1.2-0.2
			s-0.8,0.1-1.2,0.2c-0.3,0.1-0.6,0.3-0.9,0.5c-0.2,0.2-0.4,0.5-0.6,0.8c-0.1,0.3-0.2,0.6-0.2,1c0,0.4,0.1,0.7,0.2,1
			c0.1,0.3,0.3,0.6,0.6,0.8c0.3,0.2,0.6,0.4,0.9,0.5C-9034.3-3425.9-9033.9-3425.8-9033.5-3425.8z M-9033.5-3424.9
			c-0.6,0-1.1-0.1-1.6-0.3c-0.5-0.2-0.9-0.4-1.2-0.7c-0.3-0.3-0.6-0.7-0.8-1.1c-0.2-0.4-0.3-0.9-0.3-1.3s0.1-0.9,0.3-1.3
			c0.2-0.4,0.5-0.8,0.8-1.1c0.3-0.3,0.8-0.5,1.2-0.7c0.5-0.2,1-0.3,1.6-0.3s1.1,0.1,1.6,0.3c0.5,0.2,0.9,0.4,1.2,0.7
			c0.3,0.3,0.6,0.6,0.8,1.1c0.2,0.4,0.3,0.9,0.3,1.3s-0.1,0.9-0.3,1.3c-0.2,0.4-0.4,0.8-0.8,1.1c-0.3,0.3-0.7,0.5-1.2,0.7
			C-9032.4-3425-9032.9-3424.9-9033.5-3424.9z"/>
	</g>
	<g transform="translate(9056.46 3470.28)">
		<path id="path4_fill" class="st0" d="M-9020.5-3430.5h-3.8v-0.9h5.6l-4.2,5.5h4.1v0.9h-5.9L-9020.5-3430.5z"/>
	</g>
	<g transform="translate(9056.46 3470.28)">
		<path id="path5_fill" class="st0" d="M-9009.4-3425.8c0.4,0,0.8-0.1,1.2-0.2c0.4-0.1,0.7-0.3,0.9-0.5c0.3-0.2,0.4-0.5,0.6-0.8
			c0.1-0.3,0.2-0.6,0.2-1s-0.1-0.7-0.2-0.9c-0.1-0.3-0.3-0.6-0.6-0.8c-0.2-0.2-0.5-0.4-0.9-0.5c-0.4-0.1-0.8-0.2-1.2-0.2
			c-0.4,0-0.8,0.1-1.2,0.2c-0.3,0.1-0.6,0.3-0.9,0.5c-0.2,0.2-0.4,0.5-0.6,0.8c-0.1,0.3-0.2,0.6-0.2,1c0,0.4,0.1,0.7,0.2,1
			c0.1,0.3,0.3,0.6,0.6,0.8c0.3,0.2,0.6,0.4,0.9,0.5C-9010.3-3425.9-9009.9-3425.8-9009.4-3425.8z M-9009.4-3424.9
			c-0.6,0-1.1-0.1-1.6-0.3c-0.5-0.2-0.9-0.4-1.2-0.7c-0.3-0.3-0.6-0.7-0.8-1.1c-0.2-0.4-0.3-0.9-0.3-1.3s0.1-0.9,0.3-1.3
			c0.2-0.4,0.5-0.8,0.8-1.1c0.3-0.3,0.8-0.5,1.2-0.7c0.5-0.2,1-0.3,1.6-0.3c0.6,0,1.1,0.1,1.6,0.3c0.5,0.2,0.9,0.4,1.2,0.7
			c0.3,0.3,0.6,0.6,0.8,1.1c0.2,0.4,0.3,0.9,0.3,1.3s-0.1,0.9-0.3,1.3c-0.2,0.4-0.4,0.8-0.8,1.1c-0.3,0.3-0.7,0.5-1.2,0.7
			C-9008.3-3425-9008.9-3424.9-9009.4-3424.9z"/>
	</g>
</g>
<path class="st0" d="M35,3.8C17.8,3.8,3.8,17.8,3.8,35s14,31.2,31.2,31.2s31.2-14,31.2-31.2S52.2,3.8,35,3.8z M35,64.9
	C18.5,64.9,5.1,51.5,5.1,35S18.5,5.1,35,5.1S64.9,18.5,64.9,35S51.5,64.9,35,64.9z"/>
<path class="st0" d="M35,0C15.7,0,0,15.7,0,35s15.7,35,35,35s35-15.7,35-35S54.3,0,35,0z M35,68.7C16.4,68.7,1.3,53.6,1.3,35
	S16.4,1.3,35,1.3S68.7,16.4,68.7,35S53.6,68.7,35,68.7z"/>
</svg>
